<svg width="98" height="225" viewBox="0 0 98 225" fill="none" xmlns="http://www.w3.org/2000/svg">
<path d="M23.1836 24.324C21.0108 24.324 19.3084 24.973 17.9644 26.271C16.6204 27.569 16.0156 29.4712 16.0156 31.9777C16.0156 34.4842 16.6876 36.4312 18.0092 37.7068C19.3308 38.9824 21.1228 39.6538 23.3852 39.6538C25.0876 39.6538 26.4988 39.2733 27.5964 38.5348C28.694 37.7963 29.478 36.6997 29.8364 35.4241H26.902C26.23 36.8116 25.0428 37.5054 23.3628 37.5054C22.1308 37.5054 21.1004 37.1025 20.3388 36.3193C19.5772 35.536 19.1068 34.3723 18.9948 32.8729H30.038V32.4924C30.038 27.0542 27.7532 24.324 23.1836 24.324ZM19.0396 30.9035C19.1516 29.4488 19.5996 28.3522 20.3388 27.5913C21.078 26.8305 22.1084 26.4276 23.1612 26.4724C24.326 26.4724 25.2668 26.8752 25.9388 27.6585C26.6332 28.4641 26.9916 29.516 27.0588 30.9035H19.0396Z" fill="#121212"/>
<path d="M35.7578 0H32.7578V225H35.7578V0Z" fill="#FEFEFE"/>
<path d="M42.7578 0H39.7578V225H42.7578V0Z" fill="#FEFEFE"/>
<path d="M53.4024 24.324C51.2072 24.324 49.4824 25.0177 48.1832 26.3829C46.884 27.748 46.2344 29.6279 46.2344 32.0001C46.2344 34.3723 46.884 36.2297 48.1832 37.6173C49.4824 38.9824 51.2296 39.6762 53.4024 39.6762C55.5976 39.6762 57.3672 38.9824 58.6664 37.6173C59.9656 36.2521 60.6152 34.3723 60.6152 32.0001C60.6152 29.6279 59.9656 27.7704 58.6664 26.3829C57.3672 24.9954 55.62 24.324 53.4024 24.324ZM56.4936 35.8493C55.7544 36.8116 54.612 37.3487 53.4024 37.304C52.2152 37.3487 51.0504 36.8116 50.3336 35.8493C49.572 34.887 49.1912 33.589 49.1912 32.0001C49.1912 30.3888 49.572 29.1131 50.3336 28.1285C51.0504 27.1661 52.1928 26.629 53.4024 26.6738C54.612 26.629 55.7544 27.1661 56.4936 28.1285C57.2552 29.0908 57.636 30.3888 57.636 32.0001C57.636 33.6114 57.2552 34.887 56.4936 35.8493Z" fill="#121212"/>
<path d="M81.6917 24.6597L78.4437 36.9235L75.6437 24.6597H71.4773L68.5653 37.1697L65.3397 24.6597H62.0469L66.2581 39.3181H70.5589L73.5157 26.1815L76.4053 39.3181H80.6389L84.9173 24.6597H81.6917Z" fill="#121212"/>
<path d="M8.8256 34.3051L7.7504 38.132L3.2032 24.6597H0L5.3536 39.3405H6.9216H7.0784H7.4368L5.7792 45.271H8.0416L9.9456 39.3405L11.088 35.7822L14.672 24.6597H11.4912L8.8256 34.3051Z" fill="#121212"/>
<path d="M85.7034 37.6846V37.886H85.1434V39.3406H84.9194V37.886H84.3594V37.6846H85.7034Z" fill="black"/>
<path d="M85.9276 37.6846H86.2412L86.7116 39.0721L87.182 37.6846H87.4956V39.3406H87.2716V38.3559C87.2716 38.3112 87.2716 38.2664 87.2716 38.1993C87.2716 38.1322 87.2716 38.0426 87.2716 37.9531L86.8012 39.3406H86.5772L86.1068 37.9531V37.9979C86.1068 38.0426 86.1068 38.1098 86.1068 38.1769C86.1068 38.2441 86.1068 38.3112 86.1068 38.3559V39.3406H85.8828L85.9276 37.6846Z" fill="black"/>
</svg>
