<svg width="16" height="16" viewBox="0 0 16 16" fill="none" xmlns="http://www.w3.org/2000/svg">
<path d="M11.334 3.99992H14.6673V5.33325H13.334V13.9999C13.334 14.1767 13.2637 14.3463 13.1387 14.4713C13.0137 14.5963 12.8441 14.6666 12.6673 14.6666H3.33398C3.15717 14.6666 2.9876 14.5963 2.86258 14.4713C2.73756 14.3463 2.66732 14.1767 2.66732 13.9999V5.33325H1.33398V3.99992H4.66732V1.99992C4.66732 1.82311 4.73756 1.65354 4.86258 1.52851C4.9876 1.40349 5.15717 1.33325 5.33398 1.33325H10.6673C10.8441 1.33325 11.0137 1.40349 11.1387 1.52851C11.2637 1.65354 11.334 1.82311 11.334 1.99992V3.99992ZM6.00065 7.33325V11.3333H7.33398V7.33325H6.00065ZM8.66732 7.33325V11.3333H10.0007V7.33325H8.66732ZM6.00065 2.66659V3.99992H10.0007V2.66659H6.00065Z" fill="#E50931"/>
</svg>
