<svg width="128" height="50" viewBox="0 0 128 50" fill="none" xmlns="http://www.w3.org/2000/svg">
<path d="M37.1274 14.8999C34.2894 14.8999 32.0659 15.7538 30.3104 17.4617C28.555 19.1696 27.7651 21.6726 27.7651 24.9706C27.7651 28.2686 28.6428 30.8304 30.369 32.5089C32.0951 34.1873 34.4357 35.0707 37.3907 35.0707C39.6142 35.0707 41.4574 34.5701 42.891 33.5984C44.3246 32.6266 45.3486 31.1838 45.8167 29.5053H41.984C41.1063 31.331 39.5557 32.2438 37.3614 32.2438C35.7523 32.2438 34.4064 31.7138 33.4117 30.6832C32.417 29.6526 31.8026 28.1213 31.6563 26.1484H46.08V25.6478C46.08 18.4924 43.0958 14.8999 37.1274 14.8999ZM31.7148 23.5571C31.8611 21.6431 32.4462 20.2003 33.4117 19.1991C34.3772 18.1979 35.723 17.6679 37.0981 17.7268C38.6195 17.7268 39.8483 18.2568 40.726 19.2874C41.633 20.3475 42.1011 21.7315 42.1888 23.5571H31.7148Z" fill="#121212"/>
<path d="M54.0965 7.53809H50.176V34.6288H54.0965V7.53809Z" fill="#E8C305"/>
<path d="M63.0784 7.53809H59.158V34.6288H63.0784V7.53809Z" fill="#E8C305"/>
<path d="M76.5952 14.8999C73.728 14.8999 71.4752 15.8127 69.7783 17.609C68.0814 19.4052 67.2329 21.8787 67.2329 25C67.2329 28.1213 68.0814 30.5654 69.7783 32.3911C71.4752 34.1873 73.7572 35.1001 76.5952 35.1001C79.4624 35.1001 81.7737 34.1873 83.4706 32.3911C85.1675 30.5948 86.016 28.1213 86.016 25C86.016 21.8787 85.1675 19.4346 83.4706 17.609C81.7737 15.7833 79.4917 14.8999 76.5952 14.8999ZM80.6327 30.0648C79.6672 31.331 78.1751 32.0377 76.5952 31.9788C75.0446 32.0377 73.5232 31.331 72.587 30.0648C71.5922 28.7986 71.0949 27.0907 71.0949 25C71.0949 22.8799 71.5922 21.2014 72.587 19.9058C73.5232 18.6396 75.0153 17.9329 76.5952 17.9918C78.1751 17.9329 79.6672 18.6396 80.6327 19.9058C81.6274 21.172 82.1248 22.8799 82.1248 25C82.1248 27.1202 81.6274 28.7986 80.6327 30.0648Z" fill="#121212"/>
<path d="M113.547 15.3413L109.305 31.4779L105.648 15.3413H100.206L96.4023 31.8018L92.1893 15.3413H87.8885L93.3888 34.6287H99.0062L102.868 17.3437L106.642 34.6287H112.172L117.76 15.3413H113.547Z" fill="#121212"/>
<path d="M18.3735 28.0327L16.9692 33.068L11.03 15.3413H6.84619L13.8386 34.6581H15.8866H16.0914H16.5596L14.3945 42.4614H17.3495L19.8364 34.6581L21.3285 29.9762L26.0096 15.3413H21.8551L18.3735 28.0327Z" fill="#121212"/>
<path d="M118.784 32.479V32.744H118.053V34.658H117.76V32.744H117.029V32.479H118.784Z" fill="black"/>
<path d="M119.077 32.479H119.486L120.101 34.3047L120.715 32.479H121.125V34.658H120.832V33.3624C120.832 33.3035 120.832 33.2446 120.832 33.1563C120.832 33.0679 120.832 32.9501 120.832 32.8324L120.218 34.658H119.925L119.311 32.8324V32.8913C119.311 32.9501 119.311 33.0385 119.311 33.1268C119.311 33.2152 119.311 33.3035 119.311 33.3624V34.658H119.018L119.077 32.479Z" fill="black"/>
</svg>
